solid aruco_marker_id1_16mm
  facet normal 0 0 1
    outer loop
      vertex 0 13.3333333 1.35
      vertex 2.66666667 13.3333333 1.35
      vertex 2.66666667 16 1.35
    endloop
  endfacet
  facet normal 0 0 1
    outer loop
      vertex 0 13.3333333 1.35
      vertex 2.66666667 16 1.35
      vertex 0 16 1.35
    endloop
  endfacet
  facet normal 0 0 -1
    outer loop
      vertex 0 13.3333333 0
      vertex 0 16 0
      vertex 2.66666667 16 0
    endloop
  endfacet
  facet normal 0 0 -1
    outer loop
      vertex 0 13.3333333 0
      vertex 2.66666667 16 0
      vertex 2.66666667 13.3333333 0
    endloop
  endfacet
  facet normal 0 -1 0
    outer loop
      vertex 0 16 0
      vertex 2.66666667 16 0
      vertex 2.66666667 16 1.35
    endloop
  endfacet
  facet normal 0 -1 0
    outer loop
      vertex 0 16 0
      vertex 2.66666667 16 1.35
      vertex 0 16 1.35
    endloop
  endfacet
  facet normal 1 0 0
    outer loop
      vertex 0 13.3333333 0
      vertex 0 16 0
      vertex 0 16 1.35
    endloop
  endfacet
  facet normal 1 0 0
    outer loop
      vertex 0 13.3333333 0
      vertex 0 16 1.35
      vertex 0 13.3333333 1.35
    endloop
  endfacet
  facet normal 0 0 1
    outer loop
      vertex 2.66666667 13.3333333 1.35
      vertex 5.33333333 13.3333333 1.35
      vertex 5.33333333 16 1.35
    endloop
  endfacet
  facet normal 0 0 1
    outer loop
      vertex 2.66666667 13.3333333 1.35
      vertex 5.33333333 16 1.35
      vertex 2.66666667 16 1.35
    endloop
  endfacet
  facet normal 0 0 -1
    outer loop
      vertex 2.66666667 13.3333333 0
      vertex 2.66666667 16 0
      vertex 5.33333333 16 0
    endloop
  endfacet
  facet normal 0 0 -1
    outer loop
      vertex 2.66666667 13.3333333 0
      vertex 5.33333333 16 0
      vertex 5.33333333 13.3333333 0
    endloop
  endfacet
  facet normal 0 -1 0
    outer loop
      vertex 2.66666667 16 0
      vertex 5.33333333 16 0
      vertex 5.33333333 16 1.35
    endloop
  endfacet
  facet normal 0 -1 0
    outer loop
      vertex 2.66666667 16 0
      vertex 5.33333333 16 1.35
      vertex 2.66666667 16 1.35
    endloop
  endfacet
  facet normal 0 0 1
    outer loop
      vertex 5.33333333 13.3333333 1.35
      vertex 8 13.3333333 1.35
      vertex 8 16 1.35
    endloop
  endfacet
  facet normal 0 0 1
    outer loop
      vertex 5.33333333 13.3333333 1.35
      vertex 8 16 1.35
      vertex 5.33333333 16 1.35
    endloop
  endfacet
  facet normal 0 0 -1
    outer loop
      vertex 5.33333333 13.3333333 0
      vertex 5.33333333 16 0
      vertex 8 16 0
    endloop
  endfacet
  facet normal 0 0 -1
    outer loop
      vertex 5.33333333 13.3333333 0
      vertex 8 16 0
      vertex 8 13.3333333 0
    endloop
  endfacet
  facet normal 0 -1 0
    outer loop
      vertex 5.33333333 16 0
      vertex 8 16 0
      vertex 8 16 1.35
    endloop
  endfacet
  facet normal 0 -1 0
    outer loop
      vertex 5.33333333 16 0
      vertex 8 16 1.35
      vertex 5.33333333 16 1.35
    endloop
  endfacet
  facet normal 0 0 1
    outer loop
      vertex 8 13.3333333 1.35
      vertex 10.6666667 13.3333333 1.35
      vertex 10.6666667 16 1.35
    endloop
  endfacet
  facet normal 0 0 1
    outer loop
      vertex 8 13.3333333 1.35
      vertex 10.6666667 16 1.35
      vertex 8 16 1.35
    endloop
  endfacet
  facet normal 0 0 -1
    outer loop
      vertex 8 13.3333333 0
      vertex 8 16 0
      vertex 10.6666667 16 0
    endloop
  endfacet
  facet normal 0 0 -1
    outer loop
      vertex 8 13.3333333 0
      vertex 10.6666667 16 0
      vertex 10.6666667 13.3333333 0
    endloop
  endfacet
  facet normal 0 -1 0
    outer loop
      vertex 8 16 0
      vertex 10.6666667 16 0
      vertex 10.6666667 16 1.35
    endloop
  endfacet
  facet normal 0 -1 0
    outer loop
      vertex 8 16 0
      vertex 10.6666667 16 1.35
      vertex 8 16 1.35
    endloop
  endfacet
  facet normal 0 0 1
    outer loop
      vertex 10.6666667 13.3333333 1.35
      vertex 13.3333333 13.3333333 1.35
      vertex 13.3333333 16 1.35
    endloop
  endfacet
  facet normal 0 0 1
    outer loop
      vertex 10.6666667 13.3333333 1.35
      vertex 13.3333333 16 1.35
      vertex 10.6666667 16 1.35
    endloop
  endfacet
  facet normal 0 0 -1
    outer loop
      vertex 10.6666667 13.3333333 0
      vertex 10.6666667 16 0
      vertex 13.3333333 16 0
    endloop
  endfacet
  facet normal 0 0 -1
    outer loop
      vertex 10.6666667 13.3333333 0
      vertex 13.3333333 16 0
      vertex 13.3333333 13.3333333 0
    endloop
  endfacet
  facet normal 0 -1 0
    outer loop
      vertex 10.6666667 16 0
      vertex 13.3333333 16 0
      vertex 13.3333333 16 1.35
    endloop
  endfacet
  facet normal 0 -1 0
    outer loop
      vertex 10.6666667 16 0
      vertex 13.3333333 16 1.35
      vertex 10.6666667 16 1.35
    endloop
  endfacet
  facet normal 0 0 1
    outer loop
      vertex 13.3333333 13.3333333 1.35
      vertex 16 13.3333333 1.35
      vertex 16 16 1.35
    endloop
  endfacet
  facet normal 0 0 1
    outer loop
      vertex 13.3333333 13.3333333 1.35
      vertex 16 16 1.35
      vertex 13.3333333 16 1.35
    endloop
  endfacet
  facet normal 0 0 -1
    outer loop
      vertex 13.3333333 13.3333333 0
      vertex 13.3333333 16 0
      vertex 16 16 0
    endloop
  endfacet
  facet normal 0 0 -1
    outer loop
      vertex 13.3333333 13.3333333 0
      vertex 16 16 0
      vertex 16 13.3333333 0
    endloop
  endfacet
  facet normal 0 -1 0
    outer loop
      vertex 13.3333333 16 0
      vertex 16 16 0
      vertex 16 16 1.35
    endloop
  endfacet
  facet normal 0 -1 0
    outer loop
      vertex 13.3333333 16 0
      vertex 16 16 1.35
      vertex 13.3333333 16 1.35
    endloop
  endfacet
  facet normal -1 0 0
    outer loop
      vertex 16 16 0
      vertex 16 13.3333333 0
      vertex 16 13.3333333 1.35
    endloop
  endfacet
  facet normal -1 0 0
    outer loop
      vertex 16 16 0
      vertex 16 13.3333333 1.35
      vertex 16 16 1.35
    endloop
  endfacet
  facet normal 0 0 1
    outer loop
      vertex 0 10.6666667 1.35
      vertex 2.66666667 10.6666667 1.35
      vertex 2.66666667 13.3333333 1.35
    endloop
  endfacet
  facet normal 0 0 1
    outer loop
      vertex 0 10.6666667 1.35
      vertex 2.66666667 13.3333333 1.35
      vertex 0 13.3333333 1.35
    endloop
  endfacet
  facet normal 0 0 -1
    outer loop
      vertex 0 10.6666667 0
      vertex 0 13.3333333 0
      vertex 2.66666667 13.3333333 0
    endloop
  endfacet
  facet normal 0 0 -1
    outer loop
      vertex 0 10.6666667 0
      vertex 2.66666667 13.3333333 0
      vertex 2.66666667 10.6666667 0
    endloop
  endfacet
  facet normal 1 0 0
    outer loop
      vertex 0 10.6666667 0
      vertex 0 13.3333333 0
      vertex 0 13.3333333 1.35
    endloop
  endfacet
  facet normal 1 0 0
    outer loop
      vertex 0 10.6666667 0
      vertex 0 13.3333333 1.35
      vertex 0 10.6666667 1.35
    endloop
  endfacet
  facet normal 0 0 1
    outer loop
      vertex 2.66666667 10.6666667 1.35
      vertex 5.33333333 10.6666667 1.35
      vertex 5.33333333 13.3333333 1.35
    endloop
  endfacet
  facet normal 0 0 1
    outer loop
      vertex 2.66666667 10.6666667 1.35
      vertex 5.33333333 13.3333333 1.35
      vertex 2.66666667 13.3333333 1.35
    endloop
  endfacet
  facet normal 0 0 -1
    outer loop
      vertex 2.66666667 10.6666667 0
      vertex 2.66666667 13.3333333 0
      vertex 5.33333333 13.3333333 0
    endloop
  endfacet
  facet normal 0 0 -1
    outer loop
      vertex 2.66666667 10.6666667 0
      vertex 5.33333333 13.3333333 0
      vertex 5.33333333 10.6666667 0
    endloop
  endfacet
  facet normal 0 1 0
    outer loop
      vertex 5.33333333 10.6666667 1.2
      vertex 2.66666667 10.6666667 1.2
      vertex 2.66666667 10.6666667 1.35
    endloop
  endfacet
  facet normal 0 1 -0
    outer loop
      vertex 5.33333333 10.6666667 1.2
      vertex 2.66666667 10.6666667 1.35
      vertex 5.33333333 10.6666667 1.35
    endloop
  endfacet
  facet normal 0 0 1
    outer loop
      vertex 5.33333333 10.6666667 1.35
      vertex 8 10.6666667 1.35
      vertex 8 13.3333333 1.35
    endloop
  endfacet
  facet normal 0 0 1
    outer loop
      vertex 5.33333333 10.6666667 1.35
      vertex 8 13.3333333 1.35
      vertex 5.33333333 13.3333333 1.35
    endloop
  endfacet
  facet normal 0 0 -1
    outer loop
      vertex 5.33333333 10.6666667 0
      vertex 5.33333333 13.3333333 0
      vertex 8 13.3333333 0
    endloop
  endfacet
  facet normal 0 0 -1
    outer loop
      vertex 5.33333333 10.6666667 0
      vertex 8 13.3333333 0
      vertex 8 10.6666667 0
    endloop
  endfacet
  facet normal 0 1 0
    outer loop
      vertex 8 10.6666667 1.2
      vertex 5.33333333 10.6666667 1.2
      vertex 5.33333333 10.6666667 1.35
    endloop
  endfacet
  facet normal 0 1 -0
    outer loop
      vertex 8 10.6666667 1.2
      vertex 5.33333333 10.6666667 1.35
      vertex 8 10.6666667 1.35
    endloop
  endfacet
  facet normal 0 0 1
    outer loop
      vertex 8 10.6666667 1.35
      vertex 10.6666667 10.6666667 1.35
      vertex 10.6666667 13.3333333 1.35
    endloop
  endfacet
  facet normal 0 0 1
    outer loop
      vertex 8 10.6666667 1.35
      vertex 10.6666667 13.3333333 1.35
      vertex 8 13.3333333 1.35
    endloop
  endfacet
  facet normal 0 0 -1
    outer loop
      vertex 8 10.6666667 0
      vertex 8 13.3333333 0
      vertex 10.6666667 13.3333333 0
    endloop
  endfacet
  facet normal 0 0 -1
    outer loop
      vertex 8 10.6666667 0
      vertex 10.6666667 13.3333333 0
      vertex 10.6666667 10.6666667 0
    endloop
  endfacet
  facet normal 0 1 0
    outer loop
      vertex 10.6666667 10.6666667 1.2
      vertex 8 10.6666667 1.2
      vertex 8 10.6666667 1.35
    endloop
  endfacet
  facet normal 0 1 -0
    outer loop
      vertex 10.6666667 10.6666667 1.2
      vertex 8 10.6666667 1.35
      vertex 10.6666667 10.6666667 1.35
    endloop
  endfacet
  facet normal 0 0 1
    outer loop
      vertex 10.6666667 10.6666667 1.35
      vertex 13.3333333 10.6666667 1.35
      vertex 13.3333333 13.3333333 1.35
    endloop
  endfacet
  facet normal 0 0 1
    outer loop
      vertex 10.6666667 10.6666667 1.35
      vertex 13.3333333 13.3333333 1.35
      vertex 10.6666667 13.3333333 1.35
    endloop
  endfacet
  facet normal 0 0 -1
    outer loop
      vertex 10.6666667 10.6666667 0
      vertex 10.6666667 13.3333333 0
      vertex 13.3333333 13.3333333 0
    endloop
  endfacet
  facet normal 0 0 -1
    outer loop
      vertex 10.6666667 10.6666667 0
      vertex 13.3333333 13.3333333 0
      vertex 13.3333333 10.6666667 0
    endloop
  endfacet
  facet normal 0 1 0
    outer loop
      vertex 13.3333333 10.6666667 1.2
      vertex 10.6666667 10.6666667 1.2
      vertex 10.6666667 10.6666667 1.35
    endloop
  endfacet
  facet normal 0 1 -0
    outer loop
      vertex 13.3333333 10.6666667 1.2
      vertex 10.6666667 10.6666667 1.35
      vertex 13.3333333 10.6666667 1.35
    endloop
  endfacet
  facet normal 0 0 1
    outer loop
      vertex 13.3333333 10.6666667 1.35
      vertex 16 10.6666667 1.35
      vertex 16 13.3333333 1.35
    endloop
  endfacet
  facet normal 0 0 1
    outer loop
      vertex 13.3333333 10.6666667 1.35
      vertex 16 13.3333333 1.35
      vertex 13.3333333 13.3333333 1.35
    endloop
  endfacet
  facet normal 0 0 -1
    outer loop
      vertex 13.3333333 10.6666667 0
      vertex 13.3333333 13.3333333 0
      vertex 16 13.3333333 0
    endloop
  endfacet
  facet normal 0 0 -1
    outer loop
      vertex 13.3333333 10.6666667 0
      vertex 16 13.3333333 0
      vertex 16 10.6666667 0
    endloop
  endfacet
  facet normal -1 0 0
    outer loop
      vertex 16 13.3333333 0
      vertex 16 10.6666667 0
      vertex 16 10.6666667 1.35
    endloop
  endfacet
  facet normal -1 0 0
    outer loop
      vertex 16 13.3333333 0
      vertex 16 10.6666667 1.35
      vertex 16 13.3333333 1.35
    endloop
  endfacet
  facet normal 0 0 1
    outer loop
      vertex 0 8 1.35
      vertex 2.66666667 8 1.35
      vertex 2.66666667 10.6666667 1.35
    endloop
  endfacet
  facet normal 0 0 1
    outer loop
      vertex 0 8 1.35
      vertex 2.66666667 10.6666667 1.35
      vertex 0 10.6666667 1.35
    endloop
  endfacet
  facet normal 0 0 -1
    outer loop
      vertex 0 8 0
      vertex 0 10.6666667 0
      vertex 2.66666667 10.6666667 0
    endloop
  endfacet
  facet normal 0 0 -1
    outer loop
      vertex 0 8 0
      vertex 2.66666667 10.6666667 0
      vertex 2.66666667 8 0
    endloop
  endfacet
  facet normal 1 0 0
    outer loop
      vertex 0 8 0
      vertex 0 10.6666667 0
      vertex 0 10.6666667 1.35
    endloop
  endfacet
  facet normal 1 0 0
    outer loop
      vertex 0 8 0
      vertex 0 10.6666667 1.35
      vertex 0 8 1.35
    endloop
  endfacet
  facet normal -1 0 0
    outer loop
      vertex 2.66666667 10.6666667 1.2
      vertex 2.66666667 8 1.2
      vertex 2.66666667 8 1.35
    endloop
  endfacet
  facet normal -1 0 0
    outer loop
      vertex 2.66666667 10.6666667 1.2
      vertex 2.66666667 8 1.35
      vertex 2.66666667 10.6666667 1.35
    endloop
  endfacet
  facet normal 0 0 1
    outer loop
      vertex 2.66666667 8 1.2
      vertex 5.33333333 8 1.2
      vertex 5.33333333 10.6666667 1.2
    endloop
  endfacet
  facet normal 0 0 1
    outer loop
      vertex 2.66666667 8 1.2
      vertex 5.33333333 10.6666667 1.2
      vertex 2.66666667 10.6666667 1.2
    endloop
  endfacet
  facet normal 0 0 -1
    outer loop
      vertex 2.66666667 8 0
      vertex 2.66666667 10.6666667 0
      vertex 5.33333333 10.6666667 0
    endloop
  endfacet
  facet normal 0 0 -1
    outer loop
      vertex 2.66666667 8 0
      vertex 5.33333333 10.6666667 0
      vertex 5.33333333 8 0
    endloop
  endfacet
  facet normal 0 0 1
    outer loop
      vertex 5.33333333 8 1.2
      vertex 8 8 1.2
      vertex 8 10.6666667 1.2
    endloop
  endfacet
  facet normal 0 0 1
    outer loop
      vertex 5.33333333 8 1.2
      vertex 8 10.6666667 1.2
      vertex 5.33333333 10.6666667 1.2
    endloop
  endfacet
  facet normal 0 0 -1
    outer loop
      vertex 5.33333333 8 0
      vertex 5.33333333 10.6666667 0
      vertex 8 10.6666667 0
    endloop
  endfacet
  facet normal 0 0 -1
    outer loop
      vertex 5.33333333 8 0
      vertex 8 10.6666667 0
      vertex 8 8 0
    endloop
  endfacet
  facet normal 0 0 1
    outer loop
      vertex 8 8 1.2
      vertex 10.6666667 8 1.2
      vertex 10.6666667 10.6666667 1.2
    endloop
  endfacet
  facet normal 0 0 1
    outer loop
      vertex 8 8 1.2
      vertex 10.6666667 10.6666667 1.2
      vertex 8 10.6666667 1.2
    endloop
  endfacet
  facet normal 0 0 -1
    outer loop
      vertex 8 8 0
      vertex 8 10.6666667 0
      vertex 10.6666667 10.6666667 0
    endloop
  endfacet
  facet normal 0 0 -1
    outer loop
      vertex 8 8 0
      vertex 10.6666667 10.6666667 0
      vertex 10.6666667 8 0
    endloop
  endfacet
  facet normal 0 0 1
    outer loop
      vertex 10.6666667 8 1.2
      vertex 13.3333333 8 1.2
      vertex 13.3333333 10.6666667 1.2
    endloop
  endfacet
  facet normal 0 0 1
    outer loop
      vertex 10.6666667 8 1.2
      vertex 13.3333333 10.6666667 1.2
      vertex 10.6666667 10.6666667 1.2
    endloop
  endfacet
  facet normal 0 0 -1
    outer loop
      vertex 10.6666667 8 0
      vertex 10.6666667 10.6666667 0
      vertex 13.3333333 10.6666667 0
    endloop
  endfacet
  facet normal 0 0 -1
    outer loop
      vertex 10.6666667 8 0
      vertex 13.3333333 10.6666667 0
      vertex 13.3333333 8 0
    endloop
  endfacet
  facet normal 0 0 1
    outer loop
      vertex 13.3333333 8 1.35
      vertex 16 8 1.35
      vertex 16 10.6666667 1.35
    endloop
  endfacet
  facet normal 0 0 1
    outer loop
      vertex 13.3333333 8 1.35
      vertex 16 10.6666667 1.35
      vertex 13.3333333 10.6666667 1.35
    endloop
  endfacet
  facet normal 0 0 -1
    outer loop
      vertex 13.3333333 8 0
      vertex 13.3333333 10.6666667 0
      vertex 16 10.6666667 0
    endloop
  endfacet
  facet normal 0 0 -1
    outer loop
      vertex 13.3333333 8 0
      vertex 16 10.6666667 0
      vertex 16 8 0
    endloop
  endfacet
  facet normal 1 0 0
    outer loop
      vertex 13.3333333 8 1.2
      vertex 13.3333333 10.6666667 1.2
      vertex 13.3333333 10.6666667 1.35
    endloop
  endfacet
  facet normal 1 0 0
    outer loop
      vertex 13.3333333 8 1.2
      vertex 13.3333333 10.6666667 1.35
      vertex 13.3333333 8 1.35
    endloop
  endfacet
  facet normal -1 0 0
    outer loop
      vertex 16 10.6666667 0
      vertex 16 8 0
      vertex 16 8 1.35
    endloop
  endfacet
  facet normal -1 0 0
    outer loop
      vertex 16 10.6666667 0
      vertex 16 8 1.35
      vertex 16 10.6666667 1.35
    endloop
  endfacet
  facet normal 0 0 1
    outer loop
      vertex 0 5.33333333 1.35
      vertex 2.66666667 5.33333333 1.35
      vertex 2.66666667 8 1.35
    endloop
  endfacet
  facet normal 0 0 1
    outer loop
      vertex 0 5.33333333 1.35
      vertex 2.66666667 8 1.35
      vertex 0 8 1.35
    endloop
  endfacet
  facet normal 0 0 -1
    outer loop
      vertex 0 5.33333333 0
      vertex 0 8 0
      vertex 2.66666667 8 0
    endloop
  endfacet
  facet normal 0 0 -1
    outer loop
      vertex 0 5.33333333 0
      vertex 2.66666667 8 0
      vertex 2.66666667 5.33333333 0
    endloop
  endfacet
  facet normal 1 0 0
    outer loop
      vertex 0 5.33333333 0
      vertex 0 8 0
      vertex 0 8 1.35
    endloop
  endfacet
  facet normal 1 0 0
    outer loop
      vertex 0 5.33333333 0
      vertex 0 8 1.35
      vertex 0 5.33333333 1.35
    endloop
  endfacet
  facet normal -1 0 0
    outer loop
      vertex 2.66666667 8 1.2
      vertex 2.66666667 5.33333333 1.2
      vertex 2.66666667 5.33333333 1.35
    endloop
  endfacet
  facet normal -1 0 0
    outer loop
      vertex 2.66666667 8 1.2
      vertex 2.66666667 5.33333333 1.35
      vertex 2.66666667 8 1.35
    endloop
  endfacet
  facet normal 0 0 1
    outer loop
      vertex 2.66666667 5.33333333 1.2
      vertex 5.33333333 5.33333333 1.2
      vertex 5.33333333 8 1.2
    endloop
  endfacet
  facet normal 0 0 1
    outer loop
      vertex 2.66666667 5.33333333 1.2
      vertex 5.33333333 8 1.2
      vertex 2.66666667 8 1.2
    endloop
  endfacet
  facet normal 0 0 -1
    outer loop
      vertex 2.66666667 5.33333333 0
      vertex 2.66666667 8 0
      vertex 5.33333333 8 0
    endloop
  endfacet
  facet normal 0 0 -1
    outer loop
      vertex 2.66666667 5.33333333 0
      vertex 5.33333333 8 0
      vertex 5.33333333 5.33333333 0
    endloop
  endfacet
  facet normal 0 0 1
    outer loop
      vertex 5.33333333 5.33333333 1.35
      vertex 8 5.33333333 1.35
      vertex 8 8 1.35
    endloop
  endfacet
  facet normal 0 0 1
    outer loop
      vertex 5.33333333 5.33333333 1.35
      vertex 8 8 1.35
      vertex 5.33333333 8 1.35
    endloop
  endfacet
  facet normal 0 0 -1
    outer loop
      vertex 5.33333333 5.33333333 0
      vertex 5.33333333 8 0
      vertex 8 8 0
    endloop
  endfacet
  facet normal 0 0 -1
    outer loop
      vertex 5.33333333 5.33333333 0
      vertex 8 8 0
      vertex 8 5.33333333 0
    endloop
  endfacet
  facet normal 0 -1 0
    outer loop
      vertex 5.33333333 8 1.2
      vertex 8 8 1.2
      vertex 8 8 1.35
    endloop
  endfacet
  facet normal 0 -1 0
    outer loop
      vertex 5.33333333 8 1.2
      vertex 8 8 1.35
      vertex 5.33333333 8 1.35
    endloop
  endfacet
  facet normal 1 0 0
    outer loop
      vertex 5.33333333 5.33333333 1.2
      vertex 5.33333333 8 1.2
      vertex 5.33333333 8 1.35
    endloop
  endfacet
  facet normal 1 0 0
    outer loop
      vertex 5.33333333 5.33333333 1.2
      vertex 5.33333333 8 1.35
      vertex 5.33333333 5.33333333 1.35
    endloop
  endfacet
  facet normal 0 0 1
    outer loop
      vertex 8 5.33333333 1.35
      vertex 10.6666667 5.33333333 1.35
      vertex 10.6666667 8 1.35
    endloop
  endfacet
  facet normal 0 0 1
    outer loop
      vertex 8 5.33333333 1.35
      vertex 10.6666667 8 1.35
      vertex 8 8 1.35
    endloop
  endfacet
  facet normal 0 0 -1
    outer loop
      vertex 8 5.33333333 0
      vertex 8 8 0
      vertex 10.6666667 8 0
    endloop
  endfacet
  facet normal 0 0 -1
    outer loop
      vertex 8 5.33333333 0
      vertex 10.6666667 8 0
      vertex 10.6666667 5.33333333 0
    endloop
  endfacet
  facet normal 0 -1 0
    outer loop
      vertex 8 8 1.2
      vertex 10.6666667 8 1.2
      vertex 10.6666667 8 1.35
    endloop
  endfacet
  facet normal 0 -1 0
    outer loop
      vertex 8 8 1.2
      vertex 10.6666667 8 1.35
      vertex 8 8 1.35
    endloop
  endfacet
  facet normal 0 1 0
    outer loop
      vertex 10.6666667 5.33333333 1.2
      vertex 8 5.33333333 1.2
      vertex 8 5.33333333 1.35
    endloop
  endfacet
  facet normal 0 1 -0
    outer loop
      vertex 10.6666667 5.33333333 1.2
      vertex 8 5.33333333 1.35
      vertex 10.6666667 5.33333333 1.35
    endloop
  endfacet
  facet normal -1 0 0
    outer loop
      vertex 10.6666667 8 1.2
      vertex 10.6666667 5.33333333 1.2
      vertex 10.6666667 5.33333333 1.35
    endloop
  endfacet
  facet normal -1 0 0
    outer loop
      vertex 10.6666667 8 1.2
      vertex 10.6666667 5.33333333 1.35
      vertex 10.6666667 8 1.35
    endloop
  endfacet
  facet normal 0 0 1
    outer loop
      vertex 10.6666667 5.33333333 1.2
      vertex 13.3333333 5.33333333 1.2
      vertex 13.3333333 8 1.2
    endloop
  endfacet
  facet normal 0 0 1
    outer loop
      vertex 10.6666667 5.33333333 1.2
      vertex 13.3333333 8 1.2
      vertex 10.6666667 8 1.2
    endloop
  endfacet
  facet normal 0 0 -1
    outer loop
      vertex 10.6666667 5.33333333 0
      vertex 10.6666667 8 0
      vertex 13.3333333 8 0
    endloop
  endfacet
  facet normal 0 0 -1
    outer loop
      vertex 10.6666667 5.33333333 0
      vertex 13.3333333 8 0
      vertex 13.3333333 5.33333333 0
    endloop
  endfacet
  facet normal 0 0 1
    outer loop
      vertex 13.3333333 5.33333333 1.35
      vertex 16 5.33333333 1.35
      vertex 16 8 1.35
    endloop
  endfacet
  facet normal 0 0 1
    outer loop
      vertex 13.3333333 5.33333333 1.35
      vertex 16 8 1.35
      vertex 13.3333333 8 1.35
    endloop
  endfacet
  facet normal 0 0 -1
    outer loop
      vertex 13.3333333 5.33333333 0
      vertex 13.3333333 8 0
      vertex 16 8 0
    endloop
  endfacet
  facet normal 0 0 -1
    outer loop
      vertex 13.3333333 5.33333333 0
      vertex 16 8 0
      vertex 16 5.33333333 0
    endloop
  endfacet
  facet normal 1 0 0
    outer loop
      vertex 13.3333333 5.33333333 1.2
      vertex 13.3333333 8 1.2
      vertex 13.3333333 8 1.35
    endloop
  endfacet
  facet normal 1 0 0
    outer loop
      vertex 13.3333333 5.33333333 1.2
      vertex 13.3333333 8 1.35
      vertex 13.3333333 5.33333333 1.35
    endloop
  endfacet
  facet normal -1 0 0
    outer loop
      vertex 16 8 0
      vertex 16 5.33333333 0
      vertex 16 5.33333333 1.35
    endloop
  endfacet
  facet normal -1 0 0
    outer loop
      vertex 16 8 0
      vertex 16 5.33333333 1.35
      vertex 16 8 1.35
    endloop
  endfacet
  facet normal 0 0 1
    outer loop
      vertex 0 2.66666667 1.35
      vertex 2.66666667 2.66666667 1.35
      vertex 2.66666667 5.33333333 1.35
    endloop
  endfacet
  facet normal 0 0 1
    outer loop
      vertex 0 2.66666667 1.35
      vertex 2.66666667 5.33333333 1.35
      vertex 0 5.33333333 1.35
    endloop
  endfacet
  facet normal 0 0 -1
    outer loop
      vertex 0 2.66666667 0
      vertex 0 5.33333333 0
      vertex 2.66666667 5.33333333 0
    endloop
  endfacet
  facet normal 0 0 -1
    outer loop
      vertex 0 2.66666667 0
      vertex 2.66666667 5.33333333 0
      vertex 2.66666667 2.66666667 0
    endloop
  endfacet
  facet normal 1 0 0
    outer loop
      vertex 0 2.66666667 0
      vertex 0 5.33333333 0
      vertex 0 5.33333333 1.35
    endloop
  endfacet
  facet normal 1 0 0
    outer loop
      vertex 0 2.66666667 0
      vertex 0 5.33333333 1.35
      vertex 0 2.66666667 1.35
    endloop
  endfacet
  facet normal -1 0 0
    outer loop
      vertex 2.66666667 5.33333333 1.2
      vertex 2.66666667 2.66666667 1.2
      vertex 2.66666667 2.66666667 1.35
    endloop
  endfacet
  facet normal -1 0 0
    outer loop
      vertex 2.66666667 5.33333333 1.2
      vertex 2.66666667 2.66666667 1.35
      vertex 2.66666667 5.33333333 1.35
    endloop
  endfacet
  facet normal 0 0 1
    outer loop
      vertex 2.66666667 2.66666667 1.2
      vertex 5.33333333 2.66666667 1.2
      vertex 5.33333333 5.33333333 1.2
    endloop
  endfacet
  facet normal 0 0 1
    outer loop
      vertex 2.66666667 2.66666667 1.2
      vertex 5.33333333 5.33333333 1.2
      vertex 2.66666667 5.33333333 1.2
    endloop
  endfacet
  facet normal 0 0 -1
    outer loop
      vertex 2.66666667 2.66666667 0
      vertex 2.66666667 5.33333333 0
      vertex 5.33333333 5.33333333 0
    endloop
  endfacet
  facet normal 0 0 -1
    outer loop
      vertex 2.66666667 2.66666667 0
      vertex 5.33333333 5.33333333 0
      vertex 5.33333333 2.66666667 0
    endloop
  endfacet
  facet normal 0 0 1
    outer loop
      vertex 5.33333333 2.66666667 1.35
      vertex 8 2.66666667 1.35
      vertex 8 5.33333333 1.35
    endloop
  endfacet
  facet normal 0 0 1
    outer loop
      vertex 5.33333333 2.66666667 1.35
      vertex 8 5.33333333 1.35
      vertex 5.33333333 5.33333333 1.35
    endloop
  endfacet
  facet normal 0 0 -1
    outer loop
      vertex 5.33333333 2.66666667 0
      vertex 5.33333333 5.33333333 0
      vertex 8 5.33333333 0
    endloop
  endfacet
  facet normal 0 0 -1
    outer loop
      vertex 5.33333333 2.66666667 0
      vertex 8 5.33333333 0
      vertex 8 2.66666667 0
    endloop
  endfacet
  facet normal 1 0 0
    outer loop
      vertex 5.33333333 2.66666667 1.2
      vertex 5.33333333 5.33333333 1.2
      vertex 5.33333333 5.33333333 1.35
    endloop
  endfacet
  facet normal 1 0 0
    outer loop
      vertex 5.33333333 2.66666667 1.2
      vertex 5.33333333 5.33333333 1.35
      vertex 5.33333333 2.66666667 1.35
    endloop
  endfacet
  facet normal -1 0 0
    outer loop
      vertex 8 5.33333333 1.2
      vertex 8 2.66666667 1.2
      vertex 8 2.66666667 1.35
    endloop
  endfacet
  facet normal -1 0 0
    outer loop
      vertex 8 5.33333333 1.2
      vertex 8 2.66666667 1.35
      vertex 8 5.33333333 1.35
    endloop
  endfacet
  facet normal 0 0 1
    outer loop
      vertex 8 2.66666667 1.2
      vertex 10.6666667 2.66666667 1.2
      vertex 10.6666667 5.33333333 1.2
    endloop
  endfacet
  facet normal 0 0 1
    outer loop
      vertex 8 2.66666667 1.2
      vertex 10.6666667 5.33333333 1.2
      vertex 8 5.33333333 1.2
    endloop
  endfacet
  facet normal 0 0 -1
    outer loop
      vertex 8 2.66666667 0
      vertex 8 5.33333333 0
      vertex 10.6666667 5.33333333 0
    endloop
  endfacet
  facet normal 0 0 -1
    outer loop
      vertex 8 2.66666667 0
      vertex 10.6666667 5.33333333 0
      vertex 10.6666667 2.66666667 0
    endloop
  endfacet
  facet normal 0 0 1
    outer loop
      vertex 10.6666667 2.66666667 1.35
      vertex 13.3333333 2.66666667 1.35
      vertex 13.3333333 5.33333333 1.35
    endloop
  endfacet
  facet normal 0 0 1
    outer loop
      vertex 10.6666667 2.66666667 1.35
      vertex 13.3333333 5.33333333 1.35
      vertex 10.6666667 5.33333333 1.35
    endloop
  endfacet
  facet normal 0 0 -1
    outer loop
      vertex 10.6666667 2.66666667 0
      vertex 10.6666667 5.33333333 0
      vertex 13.3333333 5.33333333 0
    endloop
  endfacet
  facet normal 0 0 -1
    outer loop
      vertex 10.6666667 2.66666667 0
      vertex 13.3333333 5.33333333 0
      vertex 13.3333333 2.66666667 0
    endloop
  endfacet
  facet normal 0 -1 0
    outer loop
      vertex 10.6666667 5.33333333 1.2
      vertex 13.3333333 5.33333333 1.2
      vertex 13.3333333 5.33333333 1.35
    endloop
  endfacet
  facet normal 0 -1 0
    outer loop
      vertex 10.6666667 5.33333333 1.2
      vertex 13.3333333 5.33333333 1.35
      vertex 10.6666667 5.33333333 1.35
    endloop
  endfacet
  facet normal 1 0 0
    outer loop
      vertex 10.6666667 2.66666667 1.2
      vertex 10.6666667 5.33333333 1.2
      vertex 10.6666667 5.33333333 1.35
    endloop
  endfacet
  facet normal 1 0 0
    outer loop
      vertex 10.6666667 2.66666667 1.2
      vertex 10.6666667 5.33333333 1.35
      vertex 10.6666667 2.66666667 1.35
    endloop
  endfacet
  facet normal 0 0 1
    outer loop
      vertex 13.3333333 2.66666667 1.35
      vertex 16 2.66666667 1.35
      vertex 16 5.33333333 1.35
    endloop
  endfacet
  facet normal 0 0 1
    outer loop
      vertex 13.3333333 2.66666667 1.35
      vertex 16 5.33333333 1.35
      vertex 13.3333333 5.33333333 1.35
    endloop
  endfacet
  facet normal 0 0 -1
    outer loop
      vertex 13.3333333 2.66666667 0
      vertex 13.3333333 5.33333333 0
      vertex 16 5.33333333 0
    endloop
  endfacet
  facet normal 0 0 -1
    outer loop
      vertex 13.3333333 2.66666667 0
      vertex 16 5.33333333 0
      vertex 16 2.66666667 0
    endloop
  endfacet
  facet normal -1 0 0
    outer loop
      vertex 16 5.33333333 0
      vertex 16 2.66666667 0
      vertex 16 2.66666667 1.35
    endloop
  endfacet
  facet normal -1 0 0
    outer loop
      vertex 16 5.33333333 0
      vertex 16 2.66666667 1.35
      vertex 16 5.33333333 1.35
    endloop
  endfacet
  facet normal 0 0 1
    outer loop
      vertex 0 0 1.35
      vertex 2.66666667 0 1.35
      vertex 2.66666667 2.66666667 1.35
    endloop
  endfacet
  facet normal 0 0 1
    outer loop
      vertex 0 0 1.35
      vertex 2.66666667 2.66666667 1.35
      vertex 0 2.66666667 1.35
    endloop
  endfacet
  facet normal 0 0 -1
    outer loop
      vertex 0 0 0
      vertex 0 2.66666667 0
      vertex 2.66666667 2.66666667 0
    endloop
  endfacet
  facet normal 0 0 -1
    outer loop
      vertex 0 0 0
      vertex 2.66666667 2.66666667 0
      vertex 2.66666667 0 0
    endloop
  endfacet
  facet normal 0 1 0
    outer loop
      vertex 2.66666667 0 0
      vertex 0 0 0
      vertex 0 0 1.35
    endloop
  endfacet
  facet normal 0 1 -0
    outer loop
      vertex 2.66666667 0 0
      vertex 0 0 1.35
      vertex 2.66666667 0 1.35
    endloop
  endfacet
  facet normal 1 0 0
    outer loop
      vertex 0 0 0
      vertex 0 2.66666667 0
      vertex 0 2.66666667 1.35
    endloop
  endfacet
  facet normal 1 0 0
    outer loop
      vertex 0 0 0
      vertex 0 2.66666667 1.35
      vertex 0 0 1.35
    endloop
  endfacet
  facet normal 0 0 1
    outer loop
      vertex 2.66666667 0 1.35
      vertex 5.33333333 0 1.35
      vertex 5.33333333 2.66666667 1.35
    endloop
  endfacet
  facet normal 0 0 1
    outer loop
      vertex 2.66666667 0 1.35
      vertex 5.33333333 2.66666667 1.35
      vertex 2.66666667 2.66666667 1.35
    endloop
  endfacet
  facet normal 0 0 -1
    outer loop
      vertex 2.66666667 0 0
      vertex 2.66666667 2.66666667 0
      vertex 5.33333333 2.66666667 0
    endloop
  endfacet
  facet normal 0 0 -1
    outer loop
      vertex 2.66666667 0 0
      vertex 5.33333333 2.66666667 0
      vertex 5.33333333 0 0
    endloop
  endfacet
  facet normal 0 -1 0
    outer loop
      vertex 2.66666667 2.66666667 1.2
      vertex 5.33333333 2.66666667 1.2
      vertex 5.33333333 2.66666667 1.35
    endloop
  endfacet
  facet normal 0 -1 0
    outer loop
      vertex 2.66666667 2.66666667 1.2
      vertex 5.33333333 2.66666667 1.35
      vertex 2.66666667 2.66666667 1.35
    endloop
  endfacet
  facet normal 0 1 0
    outer loop
      vertex 5.33333333 0 0
      vertex 2.66666667 0 0
      vertex 2.66666667 0 1.35
    endloop
  endfacet
  facet normal 0 1 -0
    outer loop
      vertex 5.33333333 0 0
      vertex 2.66666667 0 1.35
      vertex 5.33333333 0 1.35
    endloop
  endfacet
  facet normal 0 0 1
    outer loop
      vertex 5.33333333 0 1.35
      vertex 8 0 1.35
      vertex 8 2.66666667 1.35
    endloop
  endfacet
  facet normal 0 0 1
    outer loop
      vertex 5.33333333 0 1.35
      vertex 8 2.66666667 1.35
      vertex 5.33333333 2.66666667 1.35
    endloop
  endfacet
  facet normal 0 0 -1
    outer loop
      vertex 5.33333333 0 0
      vertex 5.33333333 2.66666667 0
      vertex 8 2.66666667 0
    endloop
  endfacet
  facet normal 0 0 -1
    outer loop
      vertex 5.33333333 0 0
      vertex 8 2.66666667 0
      vertex 8 0 0
    endloop
  endfacet
  facet normal 0 1 0
    outer loop
      vertex 8 0 0
      vertex 5.33333333 0 0
      vertex 5.33333333 0 1.35
    endloop
  endfacet
  facet normal 0 1 -0
    outer loop
      vertex 8 0 0
      vertex 5.33333333 0 1.35
      vertex 8 0 1.35
    endloop
  endfacet
  facet normal 0 0 1
    outer loop
      vertex 8 0 1.35
      vertex 10.6666667 0 1.35
      vertex 10.6666667 2.66666667 1.35
    endloop
  endfacet
  facet normal 0 0 1
    outer loop
      vertex 8 0 1.35
      vertex 10.6666667 2.66666667 1.35
      vertex 8 2.66666667 1.35
    endloop
  endfacet
  facet normal 0 0 -1
    outer loop
      vertex 8 0 0
      vertex 8 2.66666667 0
      vertex 10.6666667 2.66666667 0
    endloop
  endfacet
  facet normal 0 0 -1
    outer loop
      vertex 8 0 0
      vertex 10.6666667 2.66666667 0
      vertex 10.6666667 0 0
    endloop
  endfacet
  facet normal 0 -1 0
    outer loop
      vertex 8 2.66666667 1.2
      vertex 10.6666667 2.66666667 1.2
      vertex 10.6666667 2.66666667 1.35
    endloop
  endfacet
  facet normal 0 -1 0
    outer loop
      vertex 8 2.66666667 1.2
      vertex 10.6666667 2.66666667 1.35
      vertex 8 2.66666667 1.35
    endloop
  endfacet
  facet normal 0 1 0
    outer loop
      vertex 10.6666667 0 0
      vertex 8 0 0
      vertex 8 0 1.35
    endloop
  endfacet
  facet normal 0 1 -0
    outer loop
      vertex 10.6666667 0 0
      vertex 8 0 1.35
      vertex 10.6666667 0 1.35
    endloop
  endfacet
  facet normal 0 0 1
    outer loop
      vertex 10.6666667 0 1.35
      vertex 13.3333333 0 1.35
      vertex 13.3333333 2.66666667 1.35
    endloop
  endfacet
  facet normal 0 0 1
    outer loop
      vertex 10.6666667 0 1.35
      vertex 13.3333333 2.66666667 1.35
      vertex 10.6666667 2.66666667 1.35
    endloop
  endfacet
  facet normal 0 0 -1
    outer loop
      vertex 10.6666667 0 0
      vertex 10.6666667 2.66666667 0
      vertex 13.3333333 2.66666667 0
    endloop
  endfacet
  facet normal 0 0 -1
    outer loop
      vertex 10.6666667 0 0
      vertex 13.3333333 2.66666667 0
      vertex 13.3333333 0 0
    endloop
  endfacet
  facet normal 0 1 0
    outer loop
      vertex 13.3333333 0 0
      vertex 10.6666667 0 0
      vertex 10.6666667 0 1.35
    endloop
  endfacet
  facet normal 0 1 -0
    outer loop
      vertex 13.3333333 0 0
      vertex 10.6666667 0 1.35
      vertex 13.3333333 0 1.35
    endloop
  endfacet
  facet normal 0 0 1
    outer loop
      vertex 13.3333333 0 1.35
      vertex 16 0 1.35
      vertex 16 2.66666667 1.35
    endloop
  endfacet
  facet normal 0 0 1
    outer loop
      vertex 13.3333333 0 1.35
      vertex 16 2.66666667 1.35
      vertex 13.3333333 2.66666667 1.35
    endloop
  endfacet
  facet normal 0 0 -1
    outer loop
      vertex 13.3333333 0 0
      vertex 13.3333333 2.66666667 0
      vertex 16 2.66666667 0
    endloop
  endfacet
  facet normal 0 0 -1
    outer loop
      vertex 13.3333333 0 0
      vertex 16 2.66666667 0
      vertex 16 0 0
    endloop
  endfacet
  facet normal 0 1 0
    outer loop
      vertex 16 0 0
      vertex 13.3333333 0 0
      vertex 13.3333333 0 1.35
    endloop
  endfacet
  facet normal 0 1 -0
    outer loop
      vertex 16 0 0
      vertex 13.3333333 0 1.35
      vertex 16 0 1.35
    endloop
  endfacet
  facet normal -1 0 0
    outer loop
      vertex 16 2.66666667 0
      vertex 16 0 0
      vertex 16 0 1.35
    endloop
  endfacet
  facet normal -1 0 0
    outer loop
      vertex 16 2.66666667 0
      vertex 16 0 1.35
      vertex 16 2.66666667 1.35
    endloop
  endfacet
endsolid aruco_marker_id1_16mm
